<svg xmlns="http://www.w3.org/2000/svg" version="1.1" xmlns:xlink="http://www.w3.org/1999/xlink" xmlns:svgjs="http://svgjs.dev/svgjs" width="1000" height="1125" viewBox="0 0 1000 1125"><g transform="matrix(1,0,0,1,0,0)"><svg viewBox="0 0 320 360" data-background-color="#ffffff" preserveAspectRatio="xMidYMid meet" height="1125" width="1000" xmlns="http://www.w3.org/2000/svg" xmlns:xlink="http://www.w3.org/1999/xlink"><g id="tight-bounds" transform="matrix(1,0,0,1,0,0)"><svg viewBox="0 0 320 360" height="360" width="320"><g><svg></svg></g><g><svg viewBox="0 0 320 360" height="360" width="320"><g><path xmlns="http://www.w3.org/2000/svg" d="M160 42.18c72.417 0 131.943 56.114 137.63 127.014h22.37c-1.137-17.82-5.308-34.882-12.133-51.185-7.962-18.957-19.716-36.398-34.502-50.805-14.787-14.787-31.848-26.161-50.806-34.503-20.095-8.341-40.948-12.891-62.559-12.891-21.611 0-42.464 4.171-62.559 12.512-18.957 7.962-36.398 19.716-50.806 34.503-14.787 14.787-26.161 31.848-34.502 50.805-6.825 16.303-10.995 33.744-12.133 51.185h22.37c5.687-70.521 65.213-126.635 137.63-126.635zM160 318.199c-72.417 0-131.943-56.114-137.63-127.014h-22.37c1.137 17.82 5.308 34.882 12.133 51.185 7.962 18.957 19.716 36.398 34.502 50.805 14.787 14.787 31.848 26.161 50.806 34.503 19.716 8.341 40.569 12.512 62.559 12.512 21.991 0 42.464-4.171 62.559-12.512 18.957-7.962 36.398-19.716 50.806-34.503 14.787-14.787 26.161-31.848 34.502-50.805 6.825-16.303 10.995-33.744 12.133-51.185h-22.37c-5.687 70.9-65.213 127.014-137.63 127.014z" fill="#0063db" fill-rule="nonzero" stroke="none" stroke-width="1" stroke-linecap="butt" stroke-linejoin="miter" stroke-miterlimit="10" stroke-dasharray="" stroke-dashoffset="0" font-family="none" font-weight="none" font-size="none" text-anchor="none" style="mix-blend-mode: normal" data-fill-palette-color="tertiary"></path></g><g transform="matrix(1,0,0,1,56,130.56497916536244)"><svg viewBox="0 0 208 98.87004166927514" height="98.87004166927514" width="208"><g><svg viewBox="0 0 208 98.87004166927514" height="98.87004166927514" width="208"><g><svg viewBox="0 0 208 98.87004166927514" height="98.87004166927514" width="208"><g><svg viewBox="0 0 208 98.87004166927514" height="98.87004166927514" width="208"><g id="textblocktransform"><svg viewBox="0 0 208 98.87004166927514" height="98.87004166927514" width="208" id="textblock"><g><svg viewBox="0 0 208 60.067453625632375" height="60.067453625632375" width="208"><g transform="matrix(1,0,0,1,0,0)"><svg width="208" viewBox="-0.10000000149011612 -33.45000076293945 115.81999969482422 33.45000076293945" height="60.067453625632375" data-palette-color="#0063db"><path d="M10.69-33.45L18.21-33.45Q20.68-33.45 22.68-32.71 24.68-31.98 26.09-30.71 27.49-29.44 28.25-27.75 29-26.05 29-24.15L29-24.15 29-9.3Q29-7.4 28.25-5.7 27.49-4 26.09-2.73 24.68-1.46 22.68-0.73 20.68 0 18.21 0L18.21 0 10.69 0Q8.23 0 6.23-0.73 4.22-1.46 2.82-2.73 1.42-4 0.66-5.7-0.1-7.4-0.1-9.3L-0.1-9.3-0.1-24.15Q-0.1-26.05 0.66-27.75 1.42-29.44 2.82-30.71 4.22-31.98 6.23-32.71 8.23-33.45 10.69-33.45L10.69-33.45ZM15.21-29.17L14.4-30.86 13.06-31.25 9.86-31.25 7.81-30.91 6.25-29.35 6.25-11.06 8.86-11.06 8.86-28.44Q9.2-28.52 9.47-28.54 9.74-28.56 10.06-28.66L10.06-28.66 12.84-28.66Q13.11-28.56 13.37-28.54 13.62-28.52 13.89-28.44L13.89-28.44 13.89-18.09 16.5-18.09 16.5-28.44 17.55-28.66 20.36-28.66Q20.65-28.56 20.95-28.54 21.24-28.52 21.56-28.44L21.56-28.44 21.56-11.06 24.15-11.06 24.15-29.35 22.61-30.91 20.56-31.25 17.36-31.25 16.04-30.86 15.21-29.17ZM51-11.06L51-13.65 41.26-13.65 41.26-19.85 49.41-19.85 49.41-22.41 41.26-22.41 41.26-28.66 50.66-28.66 50.66-31.25 38.72-31.25 38.72-11.06 51-11.06ZM39.6-33.45L47.12-33.45Q49.58-33.45 51.58-32.71 53.59-31.98 54.99-30.71 56.39-29.44 57.15-27.75 57.91-26.05 57.91-24.15L57.91-24.15 57.91-9.3Q57.91-7.4 57.15-5.7 56.39-4 54.99-2.73 53.59-1.46 51.58-0.73 49.58 0 47.12 0L47.12 0 39.6 0Q37.13 0 35.13-0.73 33.13-1.46 31.72-2.73 30.32-4 29.56-5.7 28.81-7.4 28.81-9.3L28.81-9.3 28.81-24.15Q28.81-26.05 29.56-27.75 30.32-29.44 31.72-30.71 33.13-31.98 35.13-32.71 37.13-33.45 39.6-33.45L39.6-33.45ZM69.01-28.34L70.6-28.71 76.95-28.71 79.46-28.3 79.95-30.91 77.12-31.25 70.55-31.25 68.06-30.86 66.5-29.3 66.16-27.25 66.16-14.99 66.5-12.89 68.11-11.35 70.55-11.06 76.66-11.06 79.12-11.35 80.71-12.89 81.05-14.99 81.05-21.41 73.97-21.41 73.97-18.8 78.46-18.8 78.46-15.36Q78.34-14.97 78.29-14.62 78.24-14.28 78.12-13.89L78.12-13.89 76.51-13.65 70.6-13.65 69.11-13.89 68.77-15.45 68.77-27 69.01-28.34ZM68.5-33.45L76.02-33.45Q78.49-33.45 80.49-32.71 82.49-31.98 83.89-30.71 85.3-29.44 86.05-27.75 86.81-26.05 86.81-24.15L86.81-24.15 86.81-9.3Q86.81-7.4 86.05-5.7 85.3-4 83.89-2.73 82.49-1.46 80.49-0.73 78.49 0 76.02 0L76.02 0 68.5 0Q66.04 0 64.03-0.73 62.03-1.46 60.63-2.73 59.22-4 58.47-5.7 57.71-7.4 57.71-9.3L57.71-9.3 57.71-24.15Q57.71-26.05 58.47-27.75 59.22-29.44 60.63-30.71 62.03-31.98 64.03-32.71 66.04-33.45 68.5-33.45L68.5-33.45ZM97.4-33.45L104.92-33.45Q107.39-33.45 109.39-32.71 111.39-31.98 112.8-30.71 114.2-29.44 114.96-27.75 115.72-26.05 115.72-24.15L115.72-24.15 115.72-9.3Q115.72-7.4 114.96-5.7 114.2-4 112.8-2.73 111.39-1.46 109.39-0.73 107.39 0 104.92 0L104.92 0 97.4 0Q94.94 0 92.94-0.73 90.93-1.46 89.53-2.73 88.13-4 87.37-5.7 86.61-7.4 86.61-9.3L86.61-9.3 86.61-24.15Q86.61-26.05 87.37-27.75 88.13-29.44 89.53-30.71 90.93-31.98 92.94-32.71 94.94-33.45 97.4-33.45L97.4-33.45ZM106.71-16.26L107.17-11.06 109.95-11.06 108.02-29.25 106.51-30.76 103.26-31.25 100.65-31.25 97.4-30.76 95.92-29.25 93.91-11.06 96.82-11.06 97.21-16.26 97.45-18.51 106.46-18.51 106.71-16.26ZM103.17-28.66L105.46-28.3Q105.63-26.32 105.85-24.56 106.07-22.8 106.27-20.85L106.27-20.85 97.67-20.85 98.41-28.3Q99.09-28.37 99.59-28.47 100.09-28.56 100.77-28.66L100.77-28.66 103.17-28.66Z" opacity="1" transform="matrix(1,0,0,1,0,0)" fill="#0063db" class="wordmark-text-0" data-fill-palette-color="primary" id="text-0"></path></svg></g></svg></g><g transform="matrix(1,0,0,1,0,74.24793780775717)"><svg viewBox="0 0 208 24.622103861517974" height="24.622103861517974" width="208"><g transform="matrix(1,0,0,1,0,0)"><svg width="208" viewBox="1.600000023841858 -35.20000076293945 375.4599914550781 44.45000076293945" height="24.622103861517974" data-palette-color="#0063db"><path d="M14.25-35.2Q16.2-35.2 18.3-34.75L18.3-34.75 18-30.9 17.65-30.6Q15.5-31.55 13.8-31.55L13.8-31.55Q12-31.55 11.05-30.48 10.1-29.4 10.05-27.25L10.05-27.25 10-22.95 15.9-22.95 16.05-22.6 15.75-19.7 9.95-19.7 9.8-10.15 10.15 0 5.05 0 5.35-9.7 5.25-19.7 1.8-19.7 1.6-20 1.85-22.95 5.25-22.95 5.2-26.4Q5.15-30.65 7.53-32.93 9.9-35.2 14.25-35.2L14.25-35.2ZM27.6-23.5Q32.45-23.5 35.07-20.48 37.7-17.45 37.7-11.9L37.7-11.9Q37.7-5.95 34.9-2.75 32.1 0.45 26.95 0.45L26.95 0.45Q22.1 0.45 19.47-2.58 16.85-5.6 16.85-11.15L16.85-11.15Q16.85-17.1 19.65-20.3 22.45-23.5 27.6-23.5L27.6-23.5ZM27.3-19.95Q21.6-19.95 21.6-12.25L21.6-12.25Q21.6-7.55 23-5.3 24.4-3.05 27.3-3.05L27.3-3.05Q30.15-3.05 31.55-4.95 32.95-6.85 32.95-10.75L32.95-10.75Q32.95-15.45 31.55-17.7 30.15-19.95 27.3-19.95L27.3-19.95ZM54.3-23.1Q54.85-23.1 55.55-23L55.55-23 55.55-18.15 55-18Q54.2-18.25 53.15-18.25L53.15-18.25Q51.6-18.25 50.25-17.1 48.9-15.95 47.65-13.4L47.65-13.4 47.6-10.1 47.9 0 42.8 0 43.15-9.65 42.85-22.7 47.7-23.15 47.65-18.55 48-18.55Q49.35-20.95 51-22.03 52.65-23.1 54.3-23.1L54.3-23.1ZM73.54 0L73.89-15.15Q73.94-17.05 73.02-18.13 72.09-19.2 70.34-19.2L70.34-19.2Q67.44-19.2 64.34-16.2L64.34-16.2 64.29-10.1 64.59 0 59.49 0 59.79-9.65 59.54-22.7 64.39-23.15 64.34-19.8 64.69-19.8Q67.64-22.4 70.84-23.35L70.84-23.35Q74.69-23.35 76.67-21.6 78.64-19.85 78.59-16.6L78.59-16.6 78.44-10.1 78.69 0 73.54 0ZM93.64-3.85Q95.29-3.85 97.14-4.75L97.14-4.75 97.64-4.4 97.14-1.2Q94.39 0.1 92.04 0.3L92.04 0.3Q88.94-0.2 87.54-1.78 86.14-3.35 86.14-6.35L86.14-6.35 86.34-9.95 86.29-19.7 83.14-19.7 82.94-20 83.19-22.95 86.24-22.95 86.24-26.6 90.74-28.3 91.19-27.9 91.09-22.95 97.49-22.95 97.69-22.6 97.44-19.7 90.99-19.7 90.74-7.15Q90.69-5.3 91.37-4.58 92.04-3.85 93.64-3.85L93.64-3.85ZM118.84-11.9L118.29-11.3 104.24-11.25Q104.29-7.45 106.09-5.48 107.89-3.5 111.19-3.5L111.19-3.5Q114.64-3.5 117.94-5.55L117.94-5.55 118.44-5.25 117.69-1.15Q114.04 0.45 110.59 0.45L110.59 0.45Q105.44 0.45 102.51-2.73 99.59-5.9 99.59-11.4L99.59-11.4Q99.59-16.95 102.49-20.2 105.39-23.45 110.34-23.45L110.34-23.45Q114.54-23.45 116.81-21.15 119.09-18.85 119.09-14.65L119.09-14.65Q119.09-13.5 118.84-11.9L118.84-11.9ZM114.39-14.55L114.49-15.25Q114.49-17.6 113.41-18.8 112.34-20 110.29-20L110.29-20Q107.99-20 106.49-18.53 104.99-17.05 104.49-14.35L104.49-14.35 114.39-14.55ZM138.64 0L138.99-15.15Q139.04-17.05 138.11-18.13 137.19-19.2 135.44-19.2L135.44-19.2Q132.54-19.2 129.44-16.2L129.44-16.2 129.39-10.1 129.69 0 124.59 0 124.89-9.65 124.64-22.7 129.49-23.15 129.44-19.8 129.79-19.8Q132.74-22.4 135.94-23.35L135.94-23.35Q139.79-23.35 141.76-21.6 143.74-19.85 143.69-16.6L143.69-16.6 143.54-10.1 143.79 0 138.64 0ZM169.08-35.1L168.73-10.15 168.88-5.35Q168.93-4.4 169.18-4.05 169.43-3.7 170.18-3.7L170.18-3.7Q170.73-3.7 171.73-3.9L171.73-3.9 172.18-3.55 171.68-0.75Q170.23 0.15 168.53 0.35L168.53 0.35Q166.98 0.2 166.01-0.73 165.03-1.65 164.78-3.15L164.78-3.15 164.38-3.15Q162.93-1.9 161.78-1.13 160.63-0.35 159.23 0.3L159.23 0.3Q154.23 0.3 151.56-2.78 148.88-5.85 148.88-11.45L148.88-11.45Q148.88-17.2 151.88-20.33 154.88-23.45 160.23-23.45L160.23-23.45Q161.98-23.45 164.13-23.05L164.13-23.05 164.03-34.7 169.08-35.1ZM159.73-19.95Q156.88-19.95 155.26-18 153.63-16.05 153.63-12.2L153.63-12.2Q153.63-8.15 155.13-6 156.63-3.85 159.33-3.85L159.33-3.85Q160.58-3.85 161.73-4.45 162.88-5.05 164.18-6.5L164.18-6.5 164.28-9.7 164.13-18.8Q161.73-19.95 159.73-19.95L159.73-19.95ZM203.13-35.1L202.78-10.15 202.93-5.35Q202.98-4.4 203.23-4.05 203.48-3.7 204.23-3.7L204.23-3.7Q204.78-3.7 205.78-3.9L205.78-3.9 206.23-3.55 205.73-0.75Q204.28 0.15 202.58 0.35L202.58 0.35Q201.03 0.2 200.05-0.73 199.08-1.65 198.83-3.15L198.83-3.15 198.43-3.15Q196.98-1.9 195.83-1.13 194.68-0.35 193.28 0.3L193.28 0.3Q188.28 0.3 185.6-2.78 182.93-5.85 182.93-11.45L182.93-11.45Q182.93-17.2 185.93-20.33 188.93-23.45 194.28-23.45L194.28-23.45Q196.03-23.45 198.18-23.05L198.18-23.05 198.08-34.7 203.13-35.1ZM193.78-19.95Q190.93-19.95 189.3-18 187.68-16.05 187.68-12.2L187.68-12.2Q187.68-8.15 189.18-6 190.68-3.85 193.38-3.85L193.38-3.85Q194.63-3.85 195.78-4.45 196.93-5.05 198.23-6.5L198.23-6.5 198.33-9.7 198.18-18.8Q195.78-19.95 193.78-19.95L193.78-19.95ZM228.23-11.9L227.68-11.3 213.63-11.25Q213.68-7.45 215.48-5.48 217.28-3.5 220.58-3.5L220.58-3.5Q224.03-3.5 227.33-5.55L227.33-5.55 227.83-5.25 227.08-1.15Q223.43 0.45 219.98 0.45L219.98 0.45Q214.83 0.45 211.9-2.73 208.98-5.9 208.98-11.4L208.98-11.4Q208.98-16.95 211.88-20.2 214.78-23.45 219.73-23.45L219.73-23.45Q223.93-23.45 226.2-21.15 228.48-18.85 228.48-14.65L228.48-14.65Q228.48-13.5 228.23-11.9L228.23-11.9ZM223.78-14.55L223.88-15.25Q223.88-17.6 222.8-18.8 221.73-20 219.68-20L219.68-20Q217.38-20 215.88-18.53 214.38-17.05 213.88-14.35L213.88-14.35 223.78-14.55ZM235.97-23.2L236.62-19.8 240.92-4.9 241.27-4.9 246.42-19.55 247.22-23.05 251.72-23.05 243.57 0 238.12 0 231.22-22.95 235.97-23.2ZM272.47-11.9L271.92-11.3 257.87-11.25Q257.92-7.45 259.72-5.48 261.52-3.5 264.82-3.5L264.82-3.5Q268.27-3.5 271.57-5.55L271.57-5.55 272.07-5.25 271.32-1.15Q267.67 0.45 264.22 0.45L264.22 0.45Q259.07 0.45 256.15-2.73 253.22-5.9 253.22-11.4L253.22-11.4Q253.22-16.95 256.12-20.2 259.02-23.45 263.97-23.45L263.97-23.45Q268.17-23.45 270.45-21.15 272.72-18.85 272.72-14.65L272.72-14.65Q272.72-13.5 272.47-11.9L272.47-11.9ZM268.02-14.55L268.12-15.25Q268.12-17.6 267.05-18.8 265.97-20 263.92-20L263.92-20Q261.62-20 260.12-18.53 258.62-17.05 258.12-14.35L258.12-14.35 268.02-14.55ZM283.47-35.1L283.07-10.15 283.42 0 278.32 0 278.67-9.7 278.37-34.7 283.47-35.1ZM299.82-23.5Q304.67-23.5 307.29-20.48 309.92-17.45 309.92-11.9L309.92-11.9Q309.92-5.95 307.12-2.75 304.32 0.45 299.17 0.45L299.17 0.45Q294.32 0.45 291.69-2.58 289.07-5.6 289.07-11.15L289.07-11.15Q289.07-17.1 291.87-20.3 294.67-23.5 299.82-23.5L299.82-23.5ZM299.52-19.95Q293.82-19.95 293.82-12.25L293.82-12.25Q293.82-7.55 295.22-5.3 296.62-3.05 299.52-3.05L299.52-3.05Q302.37-3.05 303.77-4.95 305.17-6.85 305.17-10.75L305.17-10.75Q305.17-15.45 303.77-17.7 302.37-19.95 299.52-19.95L299.52-19.95ZM326.61-23.3Q330.91-23.3 333.24-20.43 335.56-17.55 335.56-12.2L335.56-12.2Q335.56-6.15 332.61-2.85 329.66 0.45 324.21 0.45L324.21 0.45Q322.46 0.45 320.31 0.05L320.31 0.05 320.46 9.25 315.41 9.25 315.76-9.65 315.41-22.7 320.31-23.15 320.26-19.85 320.61-19.85Q322.21-21.25 323.56-22 324.91-22.75 326.61-23.3L326.61-23.3ZM324.61-3.05Q327.61-3.05 329.21-5.2 330.81-7.35 330.81-11.35L330.81-11.35Q330.81-15.15 329.51-17.18 328.21-19.2 325.76-19.2L325.76-19.2Q324.41-19.2 323.09-18.48 321.76-17.75 320.21-16.2L320.21-16.2 320.16-10.1 320.26-4.15Q322.61-3.05 324.61-3.05L324.61-3.05ZM358.56-11.9L358.01-11.3 343.96-11.25Q344.01-7.45 345.81-5.48 347.61-3.5 350.91-3.5L350.91-3.5Q354.36-3.5 357.66-5.55L357.66-5.55 358.16-5.25 357.41-1.15Q353.76 0.45 350.31 0.45L350.31 0.45Q345.16 0.45 342.24-2.73 339.31-5.9 339.31-11.4L339.31-11.4Q339.31-16.95 342.21-20.2 345.11-23.45 350.06-23.45L350.06-23.45Q354.26-23.45 356.54-21.15 358.81-18.85 358.81-14.65L358.81-14.65Q358.81-13.5 358.56-11.9L358.56-11.9ZM354.11-14.55L354.21-15.25Q354.21-17.6 353.14-18.8 352.06-20 350.01-20L350.01-20Q347.71-20 346.21-18.53 344.71-17.05 344.21-14.35L344.21-14.35 354.11-14.55ZM375.81-23.1Q376.36-23.1 377.06-23L377.06-23 377.06-18.15 376.51-18Q375.71-18.25 374.66-18.25L374.66-18.25Q373.11-18.25 371.76-17.1 370.41-15.95 369.16-13.4L369.16-13.4 369.11-10.1 369.41 0 364.31 0 364.66-9.65 364.36-22.7 369.21-23.15 369.16-18.55 369.51-18.55Q370.86-20.95 372.51-22.03 374.16-23.1 375.81-23.1L375.81-23.1Z" opacity="1" transform="matrix(1,0,0,1,0,0)" fill="#0063db" class="slogan-text-1" data-fill-palette-color="secondary" id="text-1"></path></svg></g></svg></g></svg></g></svg></g><g></g></svg></g></svg></g></svg></g></svg></g><defs></defs></svg><rect width="320" height="360" fill="none" stroke="none" visibility="hidden"></rect></g></svg></g></svg>